<svg width="14" height="14" viewBox="0 0 14 14" fill="none" xmlns="http://www.w3.org/2000/svg">
<path d="M3.00016 5.66668C3.00016 5.29849 3.29864 5.00001 3.66683 5.00001H7.00016C7.36835 5.00001 7.66683 5.29849 7.66683 5.66668C7.66683 6.03487 7.36835 6.33334 7.00016 6.33334H3.66683C3.29864 6.33334 3.00016 6.03487 3.00016 5.66668Z" fill="#B1B2B3"/>
<path d="M3.66683 7.66668C3.29864 7.66668 3.00016 7.96515 3.00016 8.33334C3.00016 8.70153 3.29864 9.00001 3.66683 9.00001H9.66683C10.035 9.00001 10.3335 8.70153 10.3335 8.33334C10.3335 7.96515 10.035 7.66668 9.66683 7.66668H3.66683Z" fill="#B1B2B3"/>
<path fill-rule="evenodd" clip-rule="evenodd" d="M0.333496 7.00001C0.333496 3.31811 3.31826 0.333344 7.00016 0.333344C10.6821 0.333344 13.6668 3.31811 13.6668 7.00001C13.6668 10.6819 10.6821 13.6667 7.00016 13.6667C6.44528 13.6667 5.90535 13.5987 5.38862 13.4704L1.69268 13.0084C0.893825 12.9086 0.338649 12.1639 0.471001 11.3698L0.699593 9.99825C0.700918 9.9903 0.701083 9.98221 0.700084 9.97422L0.529751 8.61155C0.401431 8.09482 0.333496 7.55489 0.333496 7.00001ZM7.00016 1.66668C4.05464 1.66668 1.66683 4.05449 1.66683 7.00001C1.66683 7.45771 1.72433 7.90102 1.83217 8.32352L1.84253 8.36412L2.02312 9.80884C2.04011 9.94473 2.0373 10.0824 2.01479 10.2175L1.78619 11.589C1.77841 11.6357 1.81107 11.6795 1.85806 11.6854L5.63606 12.1576L5.67666 12.168C6.09915 12.2758 6.54246 12.3333 7.00016 12.3333C9.94568 12.3333 12.3335 9.94553 12.3335 7.00001C12.3335 4.05449 9.94568 1.66668 7.00016 1.66668Z" fill="#B1B2B3"/>
</svg>
