<svg width="40" height="40" viewBox="0 0 40 40" fill="none" xmlns="http://www.w3.org/2000/svg">
<rect width="40" height="40" rx="20" fill="#F0F2F5"/>
<path fill-rule="evenodd" clip-rule="evenodd" d="M16.6665 10.8333C17.1267 10.8333 17.4998 11.2064 17.4998 11.6666V12.5H22.4998V11.6666C22.4998 11.2064 22.8729 10.8333 23.3332 10.8333C23.7934 10.8333 24.1665 11.2064 24.1665 11.6666V12.5H24.9998C26.8408 12.5 28.3332 13.9924 28.3332 15.8333V25C28.3332 26.8409 26.8408 28.3333 24.9998 28.3333H14.9998C13.1589 28.3333 11.6665 26.8409 11.6665 25V15.8333C11.6665 13.9924 13.1589 12.5 14.9998 12.5H15.8332V11.6666C15.8332 11.2064 16.2063 10.8333 16.6665 10.8333ZM22.4998 14.1666C22.4998 14.6269 22.8729 15 23.3332 15C23.7934 15 24.1665 14.6269 24.1665 14.1666H24.9998C25.9203 14.1666 26.6665 14.9128 26.6665 15.8333V16.25H13.3332V15.8333C13.3332 14.9128 14.0794 14.1666 14.9998 14.1666H15.8332C15.8332 14.6269 16.2063 15 16.6665 15C17.1267 15 17.4998 14.6269 17.4998 14.1666H22.4998ZM26.6665 17.9166H13.3332V25C13.3332 25.9205 14.0794 26.6666 14.9998 26.6666H24.9998C25.9203 26.6666 26.6665 25.9205 26.6665 25V17.9166Z" fill="#344054"/>
</svg>
