<svg width="18" height="16" viewBox="0 0 18 16" fill="none" xmlns="http://www.w3.org/2000/svg">
<path d="M3.99984 5.13947C3.99984 4.67923 4.37293 4.30613 4.83317 4.30613H8.99984C9.46007 4.30613 9.83317 4.67923 9.83317 5.13947C9.83317 5.5997 9.46007 5.9728 8.99984 5.9728H4.83317C4.37293 5.9728 3.99984 5.5997 3.99984 5.13947Z" fill="#667185"/>
<path d="M4.83317 7.63947C4.37293 7.63947 3.99984 8.01256 3.99984 8.4728C3.99984 8.93304 4.37293 9.30613 4.83317 9.30613H12.3332C12.7934 9.30613 13.1665 8.93304 13.1665 8.4728C13.1665 8.01256 12.7934 7.63947 12.3332 7.63947H4.83317Z" fill="#667185"/>
<path fill-rule="evenodd" clip-rule="evenodd" d="M11.8332 14.6811L12.9998 13.8061C13.2883 13.5898 13.6392 13.4728 13.9998 13.4728C15.8408 13.4728 17.3332 11.9804 17.3332 10.1395V3.4728C17.3332 1.63185 15.8408 0.139465 13.9998 0.139465H3.99984C2.15889 0.139465 0.666504 1.63185 0.666504 3.4728V10.1395C0.666504 11.9804 2.15889 13.4728 3.99984 13.4728H5.6665C6.02712 13.4728 6.37801 13.5898 6.6665 13.8061L7.83317 14.6811C9.01836 15.57 10.648 15.57 11.8332 14.6811ZM13.9998 11.8061C13.2786 11.8061 12.5768 12.0401 11.9998 12.4728L10.8332 13.3478C10.2406 13.7922 9.42576 13.7922 8.83317 13.3478L7.6665 12.4728C7.08952 12.0401 6.38774 11.8061 5.6665 11.8061H3.99984C3.07936 11.8061 2.33317 11.0599 2.33317 10.1395V3.4728C2.33317 2.55232 3.07936 1.80613 3.99984 1.80613H13.9998C14.9203 1.80613 15.6665 2.55232 15.6665 3.4728V10.1395C15.6665 11.0599 14.9203 11.8061 13.9998 11.8061Z" fill="#667185"/>
</svg>
