<svg width="20" height="20" viewBox="0 0 20 20" fill="none" xmlns="http://www.w3.org/2000/svg">
<path d="M17.2557 2.74408C17.5811 3.06951 17.5811 3.59715 17.2557 3.92259L3.92237 17.2559C3.59693 17.5814 3.06929 17.5814 2.74385 17.2559C2.41842 16.9305 2.41842 16.4028 2.74385 16.0774L16.0772 2.74408C16.4026 2.41864 16.9303 2.41864 17.2557 2.74408Z" fill="#667185"/>
<path d="M13.166 4.4767C12.2275 4.03469 11.1692 3.75 9.99976 3.75C7.54635 3.75 5.58208 5.00308 4.1861 6.33307C2.78691 7.66611 1.87903 9.14973 1.51964 9.7915C1.28412 10.2121 1.25607 10.7143 1.4494 11.1603C1.58441 11.4718 1.81401 11.9544 2.15243 12.5143C2.39047 12.9082 2.90276 13.0346 3.29665 12.7965C3.69055 12.5585 3.81689 12.0462 3.57885 11.6523C3.30666 11.2019 3.11778 10.8124 3.00322 10.5537C3.34135 9.95778 4.14215 8.67693 5.33575 7.53975C6.56864 6.36513 8.14147 5.41667 9.99976 5.41667C10.6681 5.41667 11.2996 5.53937 11.8916 5.75116L13.166 4.4767Z" fill="#667185"/>
<path d="M14.7419 7.61491C15.8923 8.73288 16.6656 9.97087 16.9963 10.5537C16.8817 10.8124 16.6929 11.2019 16.4207 11.6523C16.1826 12.0462 16.309 12.5585 16.7029 12.7965C17.0968 13.0346 17.6091 12.9082 17.8471 12.5143C18.1855 11.9544 18.4151 11.4718 18.5501 11.1603C18.7435 10.7143 18.7154 10.2121 18.4799 9.7915C18.1297 9.16625 17.259 7.74193 15.9205 6.43629L14.7419 7.61491Z" fill="#667185"/>
<path d="M9.99978 6.66667C10.3026 6.66667 10.5979 6.69898 10.8824 6.76034L9.16756 8.47519C8.45632 8.7262 7.89264 9.28987 7.64164 10.0011L5.92678 11.716C5.86542 11.4315 5.83311 11.1362 5.83311 10.8333C5.83311 8.53215 7.69859 6.66667 9.99978 6.66667Z" fill="#667185"/>
<path d="M9.99978 13.3333C9.70738 13.3333 9.42671 13.2831 9.16591 13.1909L7.91504 14.4418C8.52822 14.7968 9.24026 15 9.99978 15C12.301 15 14.1664 13.1345 14.1664 10.8333C14.1664 10.0738 13.9632 9.36177 13.6082 8.74859L12.3573 9.99947C12.4496 10.2603 12.4998 10.5409 12.4998 10.8333C12.4998 12.214 11.3805 13.3333 9.99978 13.3333Z" fill="#667185"/>
</svg>
