<svg width="16" height="20" viewBox="0 0 16 20" fill="none" xmlns="http://www.w3.org/2000/svg">
<path d="M3.83333 10.0562C3.83333 9.59592 4.20643 9.22283 4.66667 9.22283H11.3333C11.7936 9.22283 12.1667 9.59592 12.1667 10.0562C12.1667 10.5164 11.7936 10.8895 11.3333 10.8895H4.66667C4.20643 10.8895 3.83333 10.5164 3.83333 10.0562Z" fill="#667185"/>
<path d="M4.66667 13.3895C4.20643 13.3895 3.83333 13.7626 3.83333 14.2228C3.83333 14.6831 4.20643 15.0562 4.66667 15.0562H11.3333C11.7936 15.0562 12.1667 14.6831 12.1667 14.2228C12.1667 13.7626 11.7936 13.3895 11.3333 13.3895H4.66667Z" fill="#667185"/>
<path fill-rule="evenodd" clip-rule="evenodd" d="M3.83333 0.889496C1.99238 0.889496 0.5 2.38188 0.5 4.22283V15.8895C0.5 17.7304 1.99238 19.2228 3.83333 19.2228H12.1667C14.0076 19.2228 15.5 17.7304 15.5 15.8895V7.62795C15.5 6.84817 15.2266 6.09306 14.7274 5.49401L11.8898 2.08888C11.2565 1.32891 10.3183 0.889496 9.32906 0.889496H3.83333ZM2.16667 4.22283C2.16667 3.30235 2.91286 2.55616 3.83333 2.55616H8.83333V5.05616C8.83333 6.89711 10.3257 8.38949 12.1667 8.38949H13.8333V15.8895C13.8333 16.81 13.0871 17.5562 12.1667 17.5562H3.83333C2.91286 17.5562 2.16667 16.81 2.16667 15.8895V4.22283ZM13.5661 6.72283C13.5299 6.66678 13.4901 6.61271 13.447 6.56098L10.6094 3.15585C10.5747 3.11421 10.5382 3.07449 10.5 3.03678V5.05616C10.5 5.97664 11.2462 6.72283 12.1667 6.72283H13.5661Z" fill="#667185"/>
</svg>
