<svg width="18" height="19" viewBox="0 0 18 19" fill="none" xmlns="http://www.w3.org/2000/svg">
<path fill-rule="evenodd" clip-rule="evenodd" d="M5.6665 0.889496C6.12674 0.889496 6.49984 1.26259 6.49984 1.72283V2.55616H11.4998V1.72283C11.4998 1.26259 11.8729 0.889496 12.3332 0.889496C12.7934 0.889496 13.1665 1.26259 13.1665 1.72283V2.55616H13.9998C15.8408 2.55616 17.3332 4.04855 17.3332 5.8895V15.0562C17.3332 16.8971 15.8408 18.3895 13.9998 18.3895H3.99984C2.15889 18.3895 0.666504 16.8971 0.666504 15.0562V5.8895C0.666504 4.04855 2.15889 2.55616 3.99984 2.55616H4.83317V1.72283C4.83317 1.26259 5.20627 0.889496 5.6665 0.889496ZM11.4998 4.22283C11.4998 4.68307 11.8729 5.05616 12.3332 5.05616C12.7934 5.05616 13.1665 4.68307 13.1665 4.22283H13.9998C14.9203 4.22283 15.6665 4.96902 15.6665 5.8895V6.30616H2.33317V5.8895C2.33317 4.96902 3.07936 4.22283 3.99984 4.22283H4.83317C4.83317 4.68307 5.20627 5.05616 5.6665 5.05616C6.12674 5.05616 6.49984 4.68307 6.49984 4.22283H11.4998ZM15.6665 7.97283H2.33317V15.0562C2.33317 15.9766 3.07936 16.7228 3.99984 16.7228H13.9998C14.9203 16.7228 15.6665 15.9766 15.6665 15.0562V7.97283Z" fill="#667185"/>
</svg>
