<svg width="16" height="17" viewBox="0 0 16 17" fill="none" xmlns="http://www.w3.org/2000/svg">
<path d="M7.99992 15.1667C11.6818 15.1667 14.6666 12.1819 14.6666 8.49999C14.6666 4.8181 11.6818 1.83333 7.99992 1.83333C4.31802 1.83333 1.33325 4.8181 1.33325 8.49999C1.33325 12.1819 4.31802 15.1667 7.99992 15.1667Z" stroke="#666666" stroke-linecap="round" stroke-linejoin="round"/>
<path d="M6.06006 6.5C6.21679 6.05444 6.52616 5.67874 6.93336 5.43942C7.34056 5.2001 7.81932 5.11262 8.28484 5.19247C8.75036 5.27232 9.1726 5.51435 9.47678 5.87568C9.78095 6.23702 9.94743 6.69435 9.94673 7.16666C9.94673 8.5 7.94673 9.16666 7.94673 9.16666" stroke="#666666" stroke-linecap="round" stroke-linejoin="round"/>
<path d="M8 11.8333H8.00667" stroke="#666666" stroke-linecap="round" stroke-linejoin="round"/>
</svg>
