<svg width="20" height="18" viewBox="0 0 20 18" fill="none" xmlns="http://www.w3.org/2000/svg">
<path fill-rule="evenodd" clip-rule="evenodd" d="M11.9123 1.04366C10.7645 0.240249 9.2369 0.240247 8.08917 1.04366L2.35786 5.05558C1.39234 5.73144 0.855489 6.86692 0.94588 8.04201L1.5334 15.6797C1.6442 17.1202 2.94937 18.1672 4.37959 17.9628L7.02093 17.5855C8.25255 17.4096 9.16738 16.3548 9.16738 15.1106V14.0561C9.16738 13.5959 9.54047 13.2228 10.0007 13.2228C10.4609 13.2228 10.834 13.5959 10.834 14.0561V15.1106C10.834 16.3548 11.7489 17.4096 12.9805 17.5855L15.6218 17.9628C17.0521 18.1672 18.3572 17.1202 18.468 15.6797L19.0555 8.04201C19.1459 6.86692 18.6091 5.73144 17.6436 5.05558L11.9123 1.04366ZM9.04494 2.40905C9.61881 2.00734 10.3826 2.00734 10.9565 2.40905L16.6878 6.42097C17.1706 6.7589 17.439 7.32664 17.3938 7.91418L16.8063 15.5519C16.7693 16.032 16.3343 16.381 15.8575 16.3129L13.2162 15.9356C12.8057 15.8769 12.5007 15.5253 12.5007 15.1106V14.0561C12.5007 12.6754 11.3814 11.5561 10.0007 11.5561C8.62 11.5561 7.50071 12.6754 7.50071 14.0561V15.1106C7.50071 15.5253 7.19577 15.8769 6.78523 15.9356L4.14388 16.3129C3.66715 16.381 3.23209 16.032 3.19515 15.5519L2.60764 7.91418C2.56244 7.32664 2.83087 6.7589 3.31363 6.42097L9.04494 2.40905Z" fill="#814789"/>
</svg>
