<svg width="40" height="40" viewBox="0 0 40 40" fill="none" xmlns="http://www.w3.org/2000/svg">
<rect width="40" height="40" rx="20" fill="#F0F2F5"/>
<path fill-rule="evenodd" clip-rule="evenodd" d="M20.8335 12.5C20.8335 12.0398 20.4604 11.6667 20.0001 11.6667C19.5399 11.6667 19.1668 12.0398 19.1668 12.5V12.9757C16.34 13.38 14.1668 15.8102 14.1668 18.7491L14.1668 22.0828C14.1668 22.0828 14.1668 22.0826 14.1668 22.0828C14.1667 22.0844 14.1661 22.0955 14.1625 22.1174C14.1582 22.1437 14.1505 22.1794 14.1378 22.2253C14.112 22.3183 14.071 22.4342 14.0137 22.5713C13.8988 22.846 13.7368 23.1622 13.5577 23.4813C13.2209 24.0813 13.0512 24.7962 13.1786 25.4761C13.313 26.193 13.7745 26.8183 14.5627 27.1184C15.2668 27.3865 16.204 27.6316 17.4417 27.7775C17.4711 27.8031 17.506 27.8323 17.546 27.8643C17.6712 27.9645 17.8501 28.0943 18.0763 28.2236C18.5251 28.48 19.1886 28.75 20.0001 28.75C20.8116 28.75 21.4752 28.48 21.924 28.2236C22.1501 28.0943 22.3291 27.9645 22.4543 27.8643C22.4943 27.8323 22.5291 27.8031 22.5586 27.7775C23.7963 27.6316 24.7335 27.3865 25.4376 27.1184C26.2258 26.8183 26.6873 26.193 26.8217 25.4761C26.9491 24.7962 26.7793 24.0813 26.4426 23.4813C26.2634 23.1622 26.1015 22.846 25.9866 22.5713C25.9293 22.4342 25.8882 22.3183 25.8625 22.2253C25.8498 22.1794 25.8421 22.1437 25.8377 22.1174C25.8341 22.0955 25.8336 22.0846 25.8335 22.083C25.8335 22.0828 25.8335 22.083 25.8335 22.083L25.8335 22.0759V18.7495C25.8335 15.8107 23.6603 13.38 20.8335 12.9758V12.5ZM15.8335 18.7491C15.8335 16.4481 17.6987 14.5834 20.0001 14.5834C22.3014 14.5834 24.1668 16.4484 24.1668 18.7495V22.0834C24.1668 22.4691 24.3113 22.8852 24.4489 23.2143C24.5984 23.5718 24.7944 23.95 24.9892 24.2972C25.1787 24.6347 25.2239 24.9537 25.1835 25.169C25.1501 25.3472 25.0611 25.4783 24.8445 25.5608C23.9488 25.9019 22.4367 26.25 20.0001 26.25C17.5635 26.25 16.0515 25.9019 15.1558 25.5608C14.9392 25.4783 14.8501 25.3472 14.8167 25.169C14.7764 24.9537 14.8216 24.6347 15.011 24.2972C15.2059 23.95 15.4018 23.5718 15.5513 23.2143C15.6889 22.8852 15.8335 22.4691 15.8335 22.0834V18.7491Z" fill="#344054"/>
</svg>
