<svg width="32" height="32" viewBox="0 0 32 32" fill="none" xmlns="http://www.w3.org/2000/svg">
<rect x="0.5" y="0.5" width="31" height="31" rx="7.5" fill="white"/>
<rect x="0.5" y="0.5" width="31" height="31" rx="7.5" stroke="#E4E7EC"/>
<path d="M17 10.6667C17 11.219 16.5523 11.6667 16 11.6667C15.4477 11.6667 15 11.219 15 10.6667C15 10.1144 15.4477 9.66667 16 9.66667C16.5523 9.66667 17 10.1144 17 10.6667Z" fill="black"/>
<path d="M17 16C17 16.5523 16.5523 17 16 17C15.4477 17 15 16.5523 15 16C15 15.4477 15.4477 15 16 15C16.5523 15 17 15.4477 17 16Z" fill="black"/>
<path d="M16 22.3333C16.5523 22.3333 17 21.8856 17 21.3333C17 20.7811 16.5523 20.3333 16 20.3333C15.4477 20.3333 15 20.7811 15 21.3333C15 21.8856 15.4477 22.3333 16 22.3333Z" fill="black"/>
</svg>
