<svg width="41" height="40" viewBox="0 0 41 40" fill="none" xmlns="http://www.w3.org/2000/svg">
<rect x="0.75" y="0.5" width="39" height="39" rx="19.5" fill="white"/>
<rect x="0.75" y="0.5" width="39" height="39" rx="19.5" stroke="#E4E7EC"/>
<path d="M24.4168 20C22.1168 20 20.2502 21.8667 20.2502 24.1667C20.2502 26.4667 22.1168 28.3333 24.4168 28.3333C26.7168 28.3333 28.5835 26.4667 28.5835 24.1667C28.5835 21.8667 26.7168 20 24.4168 20ZM25.7918 26.125L24.0002 24.3333V21.6667H24.8335V23.9917L26.3752 25.5333L25.7918 26.125ZM25.2502 12.5H22.6002C22.2502 11.5333 21.3335 10.8333 20.2502 10.8333C19.1668 10.8333 18.2502 11.5333 17.9002 12.5H15.2502C14.3335 12.5 13.5835 13.25 13.5835 14.1667V26.6667C13.5835 27.5833 14.3335 28.3333 15.2502 28.3333H20.3418C19.8488 27.8548 19.4477 27.2899 19.1585 26.6667H15.2502V14.1667H16.9168V16.6667H23.5835V14.1667H25.2502V18.4C25.8418 18.4833 26.4002 18.6583 26.9168 18.9V14.1667C26.9168 13.25 26.1668 12.5 25.2502 12.5ZM20.2502 14.1667C19.7918 14.1667 19.4168 13.7917 19.4168 13.3333C19.4168 12.875 19.7918 12.5 20.2502 12.5C20.7085 12.5 21.0835 12.875 21.0835 13.3333C21.0835 13.7917 20.7085 14.1667 20.2502 14.1667Z" fill="black"/>
</svg>
