<svg width="18" height="18" viewBox="0 0 18 18" fill="none" xmlns="http://www.w3.org/2000/svg">
<path fill-rule="evenodd" clip-rule="evenodd" d="M7.33317 0.722809C6.4127 0.722809 5.6665 1.469 5.6665 2.38948V5.72281H2.33317C1.4127 5.72281 0.666504 6.469 0.666504 7.38948V10.7228C0.666504 11.6433 1.4127 12.3895 2.33317 12.3895H5.6665V15.7228C5.6665 16.6433 6.4127 17.3895 7.33317 17.3895H10.6665C11.587 17.3895 12.3332 16.6433 12.3332 15.7228V12.3895H15.6665C16.587 12.3895 17.3332 11.6433 17.3332 10.7228V7.38948C17.3332 6.469 16.587 5.72281 15.6665 5.72281H12.3332V2.38948C12.3332 1.469 11.587 0.722809 10.6665 0.722809H7.33317ZM5.6665 7.38948C6.58698 7.38948 7.33317 6.64328 7.33317 5.72281V2.38948H10.6665V5.72281C10.6665 6.64328 11.4127 7.38948 12.3332 7.38948H15.6665V10.7228H12.3332C11.4127 10.7228 10.6665 11.469 10.6665 12.3895V15.7228H7.33317V12.3895C7.33317 11.469 6.58698 10.7228 5.6665 10.7228H2.33317V7.38948H5.6665Z" fill="#667185"/>
</svg>
