<svg width="40" height="40" viewBox="0 0 40 40" fill="none" xmlns="http://www.w3.org/2000/svg">
<rect x="0.5" y="0.5" width="39" height="39" rx="19.5" fill="white"/>
<rect x="0.5" y="0.5" width="39" height="39" rx="19.5" stroke="#E4E7EC"/>
<g clip-path="url(#clip0_447_5586)">
<path d="M28.75 22.5C28.7513 21.8742 28.5959 21.258 28.298 20.7076C28.0001 20.1571 27.5692 19.69 27.0446 19.3488C26.5199 19.0076 25.9182 18.8031 25.2943 18.754C24.6704 18.7049 24.0441 18.8127 23.4725 19.0676C22.901 19.3225 22.4023 19.7165 22.0219 20.2135C21.6416 20.7105 21.3917 21.2948 21.295 21.9131C21.1983 22.5315 21.2579 23.1641 21.4684 23.7535C21.6789 24.3429 22.0335 24.8703 22.5 25.2875V30L25 28.8163L27.5 30V25.2875C27.8929 24.9371 28.2074 24.5077 28.4228 24.0273C28.6382 23.5469 28.7497 23.0265 28.75 22.5ZM26.25 28.025L25 27.4331L23.75 28.025V26.0313C24.5579 26.3224 25.4421 26.3224 26.25 26.0313V28.025ZM25 25C24.5055 25 24.0222 24.8534 23.6111 24.5787C23.1999 24.304 22.8795 23.9135 22.6903 23.4567C22.5011 22.9999 22.4516 22.4972 22.548 22.0123C22.6445 21.5273 22.8826 21.0819 23.2322 20.7322C23.5819 20.3826 24.0273 20.1445 24.5123 20.048C24.9972 19.9516 25.4999 20.0011 25.9567 20.1903C26.4135 20.3795 26.804 20.7 27.0787 21.1111C27.3534 21.5222 27.5 22.0056 27.5 22.5C27.4992 23.1628 27.2355 23.7982 26.7668 24.2669C26.2982 24.7355 25.6628 24.9992 25 25Z" fill="black"/>
<path d="M25.625 13.125H23.75V12.5C23.749 12.1688 23.617 11.8514 23.3828 11.6172C23.1486 11.383 22.8312 11.251 22.5 11.25H17.5C17.1688 11.251 16.8514 11.383 16.6172 11.6172C16.383 11.8514 16.251 12.1688 16.25 12.5V13.125H14.375C14.0438 13.126 13.7264 13.258 13.4922 13.4922C13.258 13.7264 13.126 14.0438 13.125 14.375V27.5C13.126 27.8312 13.258 28.1486 13.4922 28.3828C13.7264 28.617 14.0438 28.749 14.375 28.75H20V27.5H14.375V14.375H16.25V16.25H23.75V14.375H25.625V17.5H26.875V14.375C26.874 14.0438 26.742 13.7264 26.5078 13.4922C26.2736 13.258 25.9562 13.126 25.625 13.125ZM22.5 15H17.5V12.5H22.5V15Z" fill="black"/>
</g>
<defs>
<clipPath id="clip0_447_5586">
<rect width="20" height="20" fill="white" transform="translate(10 10)"/>
</clipPath>
</defs>
</svg>
