<svg width="41" height="40" viewBox="0 0 41 40" fill="none" xmlns="http://www.w3.org/2000/svg">
<rect x="1.25" y="39.5" width="39" height="39" rx="19.5" transform="rotate(-90 1.25 39.5)" fill="white"/>
<rect x="1.25" y="39.5" width="39" height="39" rx="19.5" transform="rotate(-90 1.25 39.5)" stroke="#E4E7EC"/>
<path fill-rule="evenodd" clip-rule="evenodd" d="M22.6499 13.0253C21.9128 11.3874 19.5872 11.3874 18.8502 13.0253L13.548 24.808C12.8339 26.3949 14.2649 28.1061 15.9531 27.684L19.2333 26.864C19.9901 26.6748 20.5669 26.0831 20.75 25.3452C20.9331 26.0831 21.5099 26.6748 22.2667 26.864L25.547 27.684C27.2352 28.1061 28.6662 26.3949 27.9521 24.808L22.6499 13.0253ZM15.0679 25.4919L19.7792 15.0223L19.1439 24.8697C19.1322 25.0505 19.0049 25.2031 18.8291 25.2471L15.5489 26.0671C15.2112 26.1515 14.925 25.8093 15.0679 25.4919ZM22.3562 24.8697L21.7209 15.0223L26.4322 25.4919C26.575 25.8093 26.2888 26.1515 25.9512 26.0671L22.671 25.2471C22.4951 25.2031 22.3679 25.0505 22.3562 24.8697Z" fill="black"/>
</svg>
